<svg width="24" height="24" viewBox="0 0 24 24" fill="none" xmlns="http://www.w3.org/2000/svg">
<path fill-rule="evenodd" clip-rule="evenodd" d="M11.6471 3.62513C11.1435 3.67703 10.5616 3.82931 10.1515 4.01663C9.62477 4.25717 8.50229 5.04755 8.16707 5.41391C8.11757 5.46797 7.84757 5.61893 7.56707 5.74925C6.65267 6.17423 6.27437 6.47118 5.88977 7.06566C5.57087 7.55862 5.40905 8.07198 5.40089 8.6166C5.39327 9.12336 5.42981 9.21545 5.75549 9.50963C5.88455 9.62627 6.00803 9.79301 6.02993 9.88019C6.05183 9.96737 6.14777 10.1083 6.24317 10.1932C6.41171 10.3435 6.41411 10.3536 6.32915 10.557C6.28109 10.6721 6.22601 10.9347 6.20675 11.1407C6.17693 11.4602 6.19325 11.5585 6.31823 11.8112C6.73229 12.6485 6.95903 13.0126 7.19603 13.2214C7.51643 13.5035 8.57651 13.9558 9.15707 14.058C9.38807 14.0987 9.77447 14.1697 10.0157 14.2159C10.257 14.2621 10.4795 14.2843 10.5103 14.2653C10.541 14.2463 10.6094 14.255 10.6622 14.2846C10.742 14.3292 10.7142 14.3729 10.4977 14.5425C9.96761 14.9579 9.61535 15.394 9.30557 16.0181C8.82281 16.991 8.65805 17.6972 8.60687 19.0132C8.56607 20.063 8.56301 20.052 8.90477 20.0878C9.01055 20.0989 9.27257 20.1374 9.48707 20.1734C10.3961 20.3258 10.6361 20.3596 11.0698 20.3962C11.4647 20.4296 11.5271 20.4218 11.5271 20.339C11.5271 20.2864 11.5707 20.2188 11.624 20.189C11.7103 20.1407 11.722 19.9006 11.729 18.0314L11.7371 15.9282L11.9439 15.8946C12.0577 15.8761 12.161 15.8713 12.1736 15.8839C12.1862 15.8964 12.208 16.4558 12.222 17.127C12.2708 19.4672 12.3016 20.0995 12.374 20.2584C12.4584 20.4437 12.4202 20.44 13.1336 20.3329C13.4396 20.2869 13.7386 20.262 13.7978 20.2775C13.857 20.293 13.9406 20.2633 13.9836 20.2115C14.0381 20.1458 14.1665 20.1173 14.4069 20.1173C14.5967 20.1173 14.8609 20.0788 14.9941 20.0318C15.1273 19.9849 15.2484 19.9586 15.2633 19.9735C15.2782 19.9885 15.3617 19.9736 15.4487 19.9405C15.6064 19.8805 15.6071 19.8774 15.6066 19.2338C15.6059 18.3106 15.5129 17.6195 15.2992 16.9502C15.1414 16.4558 14.814 15.7207 14.7056 15.6173C14.6884 15.6008 14.5357 15.4112 14.3663 15.1959C14.197 14.9806 13.8764 14.635 13.654 14.4277C13.3518 14.1463 13.2667 14.0336 13.3177 13.9827C13.3552 13.9452 13.4199 13.9094 13.4615 13.9033C13.5999 13.8828 14.4966 13.5552 14.5271 13.514C14.5436 13.4917 14.6246 13.4532 14.7071 13.4284C14.8467 13.3865 15.2392 13.1269 15.3071 13.0315C15.4224 12.8696 16.113 12.4373 16.2563 12.4373C16.5341 12.4373 17.0113 12.2702 17.2711 12.082C17.6858 11.7815 17.8255 11.5465 17.8665 11.0795C17.8945 10.7611 17.9479 10.5918 18.1012 10.3356C18.2103 10.1531 18.3711 9.78863 18.4585 9.52559C18.6592 8.92115 18.6439 8.29097 18.4184 7.87925C18.1842 7.45133 18.1628 7.42097 17.8409 7.05767C17.6701 6.86495 17.4128 6.54527 17.269 6.34727C16.6688 5.52035 16.0711 4.98533 15.3154 4.59833C14.987 4.43015 14.8585 4.39745 14.53 4.39817C14.3138 4.39871 14.098 4.42379 14.0503 4.45403C13.9859 4.49471 13.8852 4.42781 13.6603 4.19507C13.1846 3.70265 12.5737 3.52973 11.6471 3.62513ZM7.44707 6.3423C7.44707 6.38904 7.41617 6.43757 7.37837 6.45017C7.34057 6.46277 7.41995 6.5061 7.55477 6.54648C7.70369 6.59112 7.81451 6.66611 7.83719 6.73763C7.86143 6.81401 7.92191 6.85139 8.00945 6.84413C8.08367 6.83801 8.22791 6.89243 8.33003 6.96515C8.43209 7.03781 8.55929 7.09727 8.61269 7.09727C8.70161 7.09727 8.70179 7.10951 8.61485 7.24223C8.47991 7.44815 8.35901 7.47533 8.18531 7.33877C8.07209 7.24967 8.00663 7.23467 7.92407 7.27889C7.77863 7.35671 7.50707 7.23479 7.50707 7.09163C7.50707 7.00673 7.47371 6.99258 7.34207 7.02156C7.03145 7.08996 6.77333 7.06991 6.71117 6.97253C6.61361 6.81983 6.78563 6.5523 7.08149 6.39648C7.38887 6.23472 7.44707 6.22608 7.44707 6.3423ZM7.11707 6.61727C7.13747 6.65027 7.16603 6.67727 7.18061 6.67727C7.19519 6.67727 7.20707 6.65027 7.20707 6.61727C7.20707 6.58427 7.17845 6.55727 7.14353 6.55727C7.10861 6.55727 7.09667 6.58427 7.11707 6.61727ZM14.7427 7.31753C14.8272 7.60835 14.8307 7.70651 14.7671 7.99253C14.6932 8.32529 14.4572 8.85917 14.3567 8.92127C14.3278 8.93915 14.2126 8.92679 14.1006 8.89379C13.7902 8.80235 13.2405 8.81651 12.9156 8.92445C12.3836 9.10115 11.924 9.62747 11.7997 10.2023L11.7575 10.3973H11.3723C11.0295 10.3973 10.9871 10.3843 10.9871 10.2795C10.9871 10.2147 10.9357 10.0315 10.873 9.87221C10.8102 9.71297 10.7725 9.51113 10.7893 9.42359C10.82 9.26291 10.9921 9.06569 11.125 9.03899C11.1646 9.03101 11.3678 8.99261 11.5766 8.95367C11.9194 8.88971 11.9873 8.85089 12.2794 8.55173C12.5101 8.31545 12.6344 8.12525 12.7136 7.88759C12.8432 7.49897 13.0471 7.3173 13.3539 7.3173C13.5092 7.3173 13.575 7.28687 13.6016 7.20293C13.6246 7.13069 13.6719 7.10166 13.7301 7.12398C13.7808 7.14342 13.8571 7.13045 13.8997 7.09517C13.9577 7.04699 13.9867 7.06169 14.0161 7.15409C14.0581 7.28639 14.1671 7.32371 14.1671 7.20581C14.1671 7.16651 14.2029 7.18337 14.2467 7.24325C14.3208 7.34453 14.3318 7.33901 14.404 7.16471C14.5204 6.88361 14.631 6.93353 14.7427 7.31753ZM17.5886 7.32227C17.857 7.62593 18.1856 8.15567 18.1865 8.28593C18.1868 8.32919 18.0754 8.23469 17.9389 8.07593C17.6425 7.73123 17.5526 7.67213 17.4184 7.73381C17.3627 7.75943 17.2901 7.78397 17.2571 7.78829C17.2241 7.79267 17.096 7.82573 16.9726 7.86179C16.7125 7.93769 16.0576 7.92221 15.6671 7.83089C15.4997 7.79177 15.3715 7.78895 15.3297 7.82351C15.2013 7.92983 15.0671 7.81421 15.0671 7.59731C15.0671 7.46873 15.0908 7.40489 15.1297 7.42889C15.1642 7.45019 15.2291 7.43711 15.274 7.39985C15.3356 7.34867 15.4444 7.36205 15.7195 7.45469C16.1378 7.59563 16.3884 7.6065 16.8802 7.50492C17.1557 7.44798 17.2228 7.41282 17.1943 7.33992C17.153 7.23402 17.1502 7.21535 17.16 7.11227C17.1743 6.96143 17.3429 7.04405 17.5886 7.32227ZM10.9172 7.22123C10.9283 7.25249 10.9688 7.26005 11.0072 7.23803C11.0473 7.21505 11.0558 7.22129 11.0271 7.25267C10.9996 7.28267 10.97 7.29377 10.9613 7.27727C10.9526 7.26077 10.8967 7.28777 10.837 7.33727C10.7592 7.40177 10.5739 7.42865 10.1828 7.43207C9.88265 7.43471 9.56813 7.45656 9.48389 7.48062C9.39959 7.50468 9.18359 7.51601 9.00389 7.50581L8.67707 7.48727L8.91707 7.33913C9.09533 7.22909 9.27287 7.18265 9.60707 7.15871C10.1968 7.11647 10.8918 7.14965 10.9172 7.22123ZM12.6071 7.24931C12.6071 7.44605 12.5288 7.51727 12.3127 7.51727C12.1908 7.51727 12.0593 7.48553 12.0205 7.44671C11.9664 7.39259 11.9239 7.39961 11.8386 7.47683C11.7098 7.59341 11.6472 7.55969 11.6899 7.39673C11.7265 7.25633 11.94 7.18121 12.3182 7.17551C12.5177 7.17251 12.6071 7.19531 12.6071 7.24931ZM10.4662 8.58227C10.4425 8.67299 10.4224 8.84873 10.4215 8.97275C10.4206 9.09671 10.4057 9.18996 10.3885 9.17988C10.3712 9.1698 10.1996 9.08555 10.0072 8.99279L9.65735 8.82402L9.82049 8.65373C9.97883 8.48843 10.0902 8.44241 10.3732 8.42543C10.4932 8.41823 10.5043 8.43683 10.4662 8.58227ZM15.8181 9.90809C15.9074 10.043 16.036 10.1711 16.1038 10.1926C16.2155 10.2281 16.2096 10.2391 16.04 10.3104C15.937 10.3537 15.73 10.4075 15.58 10.43C15.3339 10.4669 15.3071 10.4592 15.3071 10.3516C15.3071 10.286 15.2672 10.1194 15.2185 9.98124C15.133 9.73884 15.134 9.73139 15.2485 9.76769C15.4283 9.82475 15.4067 9.57276 15.2246 9.48984L15.0823 9.42492L15.3296 9.17609L15.5771 8.92727L15.6164 9.29501C15.6433 9.54587 15.7073 9.74069 15.8181 9.90809ZM9.33875 9.23279C9.54773 9.42983 9.55487 9.44651 9.42215 9.42779C9.34235 9.41651 9.25043 9.34655 9.21785 9.27227C9.18527 9.19799 9.13799 9.13727 9.11285 9.13727C9.08765 9.13727 9.06707 9.11027 9.06707 9.07727C9.06707 8.98583 9.09215 9.00017 9.33875 9.23279ZM13.9271 9.07727C14.0563 9.11867 14.0605 9.12713 13.9571 9.13841C13.8911 9.14561 13.8178 9.14861 13.7942 9.14507C13.7707 9.14159 13.7642 9.17213 13.7797 9.21299C13.7984 9.26195 13.629 9.34373 13.2826 9.45287C12.7835 9.61013 12.4903 9.76056 12.5557 9.82584C12.572 9.84222 12.7861 9.81773 13.0313 9.77141C13.2764 9.72515 13.5851 9.66696 13.7171 9.64218C14.1574 9.5595 14.6996 9.59195 14.8287 9.70871C15.0513 9.91019 15.1367 10.5364 14.9971 10.9433C14.6726 11.8892 13.4033 12.2488 12.5878 11.6261C11.6564 10.915 11.9025 9.50988 13.0271 9.1173C13.3169 9.01608 13.6849 8.99969 13.9271 9.07727ZM9.93617 9.19583C9.95117 9.22007 9.89675 9.22721 9.81527 9.21161C9.73373 9.19601 9.66707 9.16193 9.66707 9.13589C9.66707 9.08027 9.89633 9.13133 9.93617 9.19583ZM8.92061 9.34535C9.03269 9.43013 9.03119 9.43355 8.88101 9.43535C8.63561 9.43835 8.35049 9.55872 8.28095 9.68874C8.19455 9.85008 8.25443 9.89142 8.44721 9.80358C8.65277 9.70992 9.53477 9.72881 9.93509 9.83543C10.1012 9.87965 10.3373 9.9162 10.4597 9.91656C10.6705 9.91722 10.6861 9.9309 10.7504 10.1698C10.9121 10.77 10.5626 11.4673 9.93707 11.7926C9.62525 11.9548 8.89289 11.9679 8.60285 11.8165C7.65305 11.3204 7.42079 10.2999 8.08865 9.55703C8.32025 9.29945 8.38961 9.25727 8.58119 9.25727C8.70377 9.25727 8.85653 9.29693 8.92061 9.34535ZM10.5416 9.72281C10.5287 9.73565 10.4405 9.70595 10.3456 9.65681C10.2506 9.60773 10.0721 9.54864 9.94883 9.52554L9.72467 9.48347L9.92087 9.37607L10.1171 9.26873L10.341 9.48414C10.4641 9.60258 10.5544 9.70997 10.5416 9.72281ZM12.9101 10.0474C12.5889 10.2157 12.4992 10.3775 12.7642 10.3107C13.0331 10.2428 13.2353 10.2415 13.2553 10.3073C13.2652 10.3403 13.2247 10.3769 13.1653 10.3888C13.1057 10.4005 13.022 10.4387 12.9793 10.4734C12.8446 10.5829 13.0222 10.6394 13.4669 10.6287C14.0543 10.6145 14.168 10.5825 14.2324 10.4134C14.2634 10.3318 14.3227 10.2781 14.3641 10.294C14.4816 10.3391 14.8934 10.2543 14.8823 10.1873C14.8642 10.0789 14.3876 9.97212 13.7771 9.9396C13.2301 9.91044 13.1534 9.91998 12.9101 10.0474ZM7.50707 10.2473C7.50707 10.3298 7.48295 10.3973 7.45349 10.3973C7.38353 10.3973 7.31705 10.222 7.36043 10.1519C7.42577 10.0461 7.50707 10.099 7.50707 10.2473ZM8.86823 10.1583C8.44421 10.2856 8.41385 10.4841 8.82707 10.4273C9.05993 10.3952 9.12707 10.4042 9.12707 10.4674C9.12707 10.5122 9.06635 10.5755 8.99207 10.6081C8.91779 10.6406 8.85707 10.7078 8.85707 10.7573C8.85707 10.8269 8.92967 10.8457 9.17855 10.8403C9.56039 10.832 10.1407 10.7067 10.2671 10.6052C10.3166 10.5655 10.3909 10.5452 10.4321 10.5601C10.4734 10.5751 10.5071 10.5487 10.5071 10.5014C10.5071 10.4095 10.2079 10.2615 9.81707 10.1602C9.53603 10.0873 9.10757 10.0864 8.86823 10.1583ZM17.4496 10.5173C17.5225 10.6658 17.5831 10.8413 17.5843 10.9073C17.5885 11.1454 17.4571 11.4845 17.2843 11.6813C17.0638 11.9324 16.5527 12.1614 16.3178 12.1144C16.0341 12.0577 15.8176 12.136 15.4793 12.4177C14.7944 12.988 14.345 13.2238 13.3271 13.547C12.8232 13.707 12.6991 13.7685 12.7074 13.8541C12.713 13.9129 12.6278 14.0975 12.518 14.2642C12.136 14.8438 12.0487 15.0584 12.1162 15.2519C12.1889 15.4604 12.162 15.4973 11.9371 15.4973C11.7587 15.4973 11.7611 15.5025 11.7332 15.0586C11.7254 14.9327 11.6797 14.7842 11.6317 14.7286C11.5838 14.6728 11.4674 14.4788 11.3731 14.2973C11.2788 14.1158 11.1971 13.9592 11.1914 13.9494C11.1859 13.9395 10.9283 13.9057 10.6192 13.8741C9.49907 13.7598 8.23037 13.4494 7.76147 13.1749C7.46783 13.0029 6.90707 12.4002 6.90707 12.2565C6.90707 12.2033 7.01705 11.9773 7.15151 11.7544C7.28591 11.5315 7.41095 11.2565 7.42937 11.1432C7.47137 10.8844 7.52315 10.8826 7.61495 11.1364C7.72961 11.4534 8.08193 11.8162 8.45009 11.9963C9.40205 12.4621 10.6162 11.9573 10.9237 10.9678L11.0357 10.6073L11.3487 10.621C11.6735 10.6352 11.8271 10.711 11.8271 10.857C11.8271 11.0009 12.0702 11.437 12.2644 11.6414C12.3659 11.7481 12.4372 11.845 12.423 11.8567C12.4087 11.8684 12.2146 11.9498 11.9914 12.0376C11.4415 12.2541 10.9146 12.2589 10.6072 12.0502C10.3442 11.8718 10.2475 11.9597 10.4749 12.1705C10.7626 12.4372 10.9723 12.5109 11.3478 12.4774C11.65 12.4504 12.2413 12.2628 12.6491 12.0644C12.7473 12.0166 12.8317 12.0215 12.9791 12.0835C13.2891 12.214 13.9048 12.1869 14.2571 12.0272C14.7505 11.8037 15.1549 11.341 15.2676 10.8707C15.2992 10.739 15.3551 10.7037 15.6211 10.6475C15.7949 10.6108 15.9941 10.5643 16.0638 10.5442C16.161 10.5161 16.1988 10.5391 16.2258 10.6423C16.2556 10.7563 16.2753 10.7651 16.354 10.6998C16.4052 10.6573 16.4471 10.6396 16.4471 10.6604C16.4471 10.6927 16.6928 10.4849 16.8971 10.2799C16.9301 10.2468 17.0381 10.2259 17.1371 10.2335C17.2853 10.2448 17.3405 10.295 17.4496 10.5173ZM16.648 10.8982C16.195 11.3512 16.2177 11.4767 16.7021 11.1968C17.1973 10.9108 17.2802 10.8338 17.2436 10.6939C17.1908 10.4923 16.9823 10.5638 16.648 10.8982ZM7.07495 10.7813C7.13819 10.843 7.12007 10.8526 6.97853 10.8317C6.85739 10.814 6.79295 10.8353 6.76751 10.9017C6.74225 10.9675 6.76475 10.9973 6.83963 10.9973C6.89951 10.9973 6.98981 11.0446 7.04039 11.1023C7.12439 11.1982 7.11251 11.232 6.90227 11.4943L6.67217 11.7812L6.58721 11.6143C6.42347 11.2924 6.41699 11.1874 6.54311 10.9023C6.65645 10.6461 6.67925 10.6273 6.83165 10.6646C6.92261 10.6869 7.03211 10.7394 7.07495 10.7813Z" fill="currentColor"/>
</svg>
