<?xml version="1.0" standalone="no"?>
<!DOCTYPE svg PUBLIC "-//W3C//DTD SVG 20010904//EN"
 "http://www.w3.org/TR/2001/REC-SVG-20010904/DTD/svg10.dtd">
<svg version="1.0" xmlns="http://www.w3.org/2000/svg"
 width="700.000000pt" height="700.000000pt" viewBox="0 0 700.000000 700.000000"
 preserveAspectRatio="xMidYMid meet">
<metadata>
Created by potrace 1.14, written by Peter Selinger 2001-2017
</metadata>
<g transform="translate(0.000000,700.000000) scale(0.100000,-0.100000)"
fill="#000000" stroke="none">
<path d="M0 3500 l0 -3500 3500 0 3500 0 0 3500 0 3500 -3500 0 -3500 0 0
-3500z m3738 1990 c433 -47 859 -262 1183 -597 288 -299 465 -639 541 -1043
30 -155 32 -513 5 -660 -80 -427 -271 -793 -574 -1095 -498 -499 -1192 -694
-1868 -524 -357 89 -674 275 -942 553 -333 345 -520 757 -564 1241 -25 286 19
573 132 858 247 620 742 1060 1377 1223 74 19 164 38 201 43 96 12 396 13 509
1z"/>
<path d="M3197 5205 c-205 -41 -413 -121 -582 -224 -94 -58 -237 -175 -359
-294 -84 -81 -98 -100 -85 -107 10 -6 266 -11 600 -12 l584 -3 5 137 c3 75 9
140 13 144 4 5 69 10 143 12 l134 4 0 -291 0 -291 -842 0 -843 0 -34 -80
c-105 -252 -149 -490 -138 -755 11 -249 61 -450 167 -670 270 -559 759 -911
1370 -986 129 -16 367 -6 495 21 448 94 857 375 1107 760 249 383 340 846 252
1277 -20 103 -88 305 -122 368 -32 58 -37 60 -218 69 l-122 6 -272 -523 c-487
-932 -909 -1719 -934 -1745 -12 -12 -19 -7 -43 30 -28 40 -383 677 -578 1036
l-88 162 -339 0 -338 0 0 145 0 146 415 -3 c399 -3 415 -4 434 -23 22 -22 160
-270 376 -673 77 -144 142 -261 145 -262 8 0 111 193 497 935 294 563 370 714
375 741 3 18 -5 19 -114 24 -69 3 -122 10 -129 17 -9 9 5 41 55 137 37 69 68
127 69 127 1 1 131 5 289 8 157 3 290 10 295 14 16 16 -265 278 -381 356 -180
120 -420 223 -606 260 -185 37 -483 39 -653 6z m93 -1162 c19 -8 45 -48 99
-149 77 -145 96 -174 117 -174 7 0 49 70 95 156 45 86 93 163 105 171 18 11
50 14 148 11 68 -2 128 -7 132 -11 14 -14 -290 -598 -438 -846 l-51 -83 -27
43 c-14 24 -95 169 -179 322 l-153 277 -292 0 c-161 0 -388 3 -504 7 l-212 6
0 145 0 144 568 -4 c367 -3 576 -8 592 -15z m1542 -532 c98 -67 112 -180 35
-268 -56 -64 -134 -80 -213 -44 -132 60 -137 243 -10 323 44 27 140 21 188
-11z"/>
</g>
</svg>
