<svg width="285" height="286" viewBox="0 0 285 286" fill="none" xmlns="http://www.w3.org/2000/svg">
<path fill-rule="evenodd" clip-rule="evenodd" d="M239.674 39.321C219.26 19.805 195.227 7.39704 167.465 2.03904C155.1 -0.346962 130.979 -0.637963 119.5 1.46004C65.921 11.255 24.35 47.534 7.104 99.547C1.502 116.442 -0.411003 129.989 0.333001 147.5C1.737 180.566 14.344 211.797 36.379 236.797C76.198 281.975 139.079 297.386 193.765 275.37C243.917 255.179 279.684 207.096 283.994 154.072C287.49 111.057 271.556 69.8 239.674 39.321ZM122 21.026C126.125 20.363 130.175 19.655 131 19.453C134.363 18.63 159.98 20.107 166.5 21.499C191.359 26.809 214.026 39.535 231.02 57.725L238.283 65.5L235.392 66.132C233.801 66.479 224.311 66.817 214.302 66.882L196.105 67L191.613 75.25C187.89 82.0866 186.052 84.9738 186.828 86.1792C187.508 87.2365 190.199 87 195.393 87C202.039 87 205 87.359 205 88.165C205 88.806 199.993 99.044 193.873 110.915C178.632 140.479 148.289 198.43 144.959 204.334L142.233 209.168L138.241 201.834C136.045 197.8 128.057 183.025 120.489 169C112.922 154.975 106.046 142.713 105.21 141.75C103.826 140.156 101.023 140 73.845 140H44V150.5V161H68.341H92.682L95.513 166.25C104.053 182.087 135.76 239.351 138.745 244.329C140.668 247.536 142.591 249.786 143.018 249.329C145.123 247.081 184.536 173.14 218.54 107.646L229.368 86.791L240.148 87.16C246.078 87.363 251.416 88.016 252.012 88.612C253.87 90.47 259.017 104.077 261.616 114C264.991 126.89 265.848 146.638 263.619 160.156C255.883 207.07 223.902 244.991 179.379 260.041C135.701 274.805 85.851 261.607 53.271 226.654C40.978 213.466 29.69 193.438 24.597 175.781C17.12 149.856 18.865 119.37 29.207 95.241L32.525 87.5L92.763 87.242L153 86.984V66.492V46H144.082C139.177 46 134.452 46.273 133.582 46.607C132.287 47.104 132 49.008 132 57.107V67H88.965C48.142 67 45.978 66.909 46.875 65.234C48.959 61.34 67.385 44.704 75.402 39.478C89.82 30.08 106.315 23.548 122 21.026ZM128.573 104.269L119.633 103.635C114.716 103.286 95.687 103 77.346 103H44V113.488V123.975L80.175 124.238L116.35 124.5L128.619 146.894C135.368 159.211 141.293 169.693 141.787 170.187C142.835 171.235 178.305 105.302 177.443 103.909C176.777 102.83 157.992 102.702 156.398 103.765C155.792 104.169 152.459 110.079 148.993 116.898C145.47 123.828 143.964 127.459 142.358 127.504C140.634 127.551 138.797 123.464 134.227 114.885L128.573 104.269ZM242.104 158.286C245.271 151.744 242.815 145.024 235.961 141.48C221.584 134.045 209.483 154.67 222.912 163.72C229.792 168.356 238.41 165.915 242.104 158.286Z" fill="black"/>
</svg>
