<svg width="172" height="32" viewBox="0 0 172 32" fill="none" xmlns="http://www.w3.org/2000/svg">
<path d="M41.6917 24V6.84H60.0277V9.96H45.5317V14.712H58.1557V17.832H45.5317V24H41.6917ZM67.6833 24.12C65.5393 24.12 63.8673 23.592 62.6673 22.536C61.4673 21.464 60.8673 19.896 60.8673 17.832C60.8673 15.752 61.4673 14.184 62.6673 13.128C63.8673 12.056 65.5393 11.52 67.6833 11.52H73.6833C75.0913 11.52 76.1633 11.856 76.8993 12.528C77.6513 13.184 78.0273 14.128 78.0273 15.36C78.0273 17.872 76.5793 19.128 73.6833 19.128H64.6113C64.9473 20.616 65.9713 21.36 67.6833 21.36H77.4033V24.12H67.6833ZM67.6833 14.28C66.0353 14.28 65.0193 14.976 64.6353 16.368H73.5153C73.8353 16.368 74.0833 16.272 74.2593 16.08C74.4513 15.888 74.5473 15.624 74.5473 15.288C74.5473 14.616 74.2033 14.28 73.5153 14.28H67.6833ZM80.1911 24V11.64H89.6471C91.0391 11.64 92.0631 11.992 92.7191 12.696C93.3751 13.384 93.7031 14.296 93.7031 15.432V18H90.1751V15.864C90.1751 14.904 89.6951 14.424 88.7351 14.424H83.7191V24H80.1911ZM99.741 24L94.533 11.64H98.181L102.213 21.216H103.413L107.445 11.64H111.093L105.885 24H99.741ZM122.084 24.12C118.996 24.12 116.588 23.392 114.86 21.936C113.148 20.464 112.292 18.288 112.292 15.408C112.292 12.544 113.148 10.384 114.86 8.928C116.588 7.456 118.996 6.72 122.084 6.72H125.204C128.308 6.72 130.716 7.456 132.428 8.928C134.14 10.384 134.996 12.544 134.996 15.408C134.996 18.288 134.14 20.464 132.428 21.936C130.716 23.392 128.308 24.12 125.204 24.12H122.084ZM116.204 15.408C116.204 17.152 116.628 18.48 117.476 19.392L126.884 10.008C126.308 9.896 125.66 9.84 124.94 9.84H122.348C120.332 9.84 118.804 10.28 117.764 11.16C116.724 12.04 116.204 13.456 116.204 15.408ZM122.348 21H124.94C126.956 21 128.484 20.56 129.524 19.68C130.564 18.784 131.084 17.36 131.084 15.408C131.084 13.664 130.652 12.336 129.788 11.424L120.356 20.832C120.948 20.944 121.612 21 122.348 21ZM137.285 24V11.64H146.741C148.133 11.64 149.157 11.992 149.813 12.696C150.469 13.384 150.797 14.296 150.797 15.432V18H147.269V15.864C147.269 14.904 146.789 14.424 145.829 14.424H140.813V24H137.285ZM152.107 24V18.912C152.107 17.312 152.555 16.072 153.451 15.192C154.347 14.312 155.651 13.872 157.363 13.872H165.259C166.779 13.872 167.539 13.224 167.539 11.928C167.539 10.632 166.779 9.984 165.259 9.984H152.491V6.864H166.003C167.667 6.864 168.955 7.312 169.867 8.208C170.795 9.104 171.259 10.344 171.259 11.928C171.259 13.512 170.795 14.752 169.867 15.648C168.955 16.544 167.667 16.992 166.003 16.992H157.891C157.203 16.992 156.683 17.168 156.331 17.52C155.995 17.856 155.827 18.336 155.827 18.96V20.904H170.803V24H152.107Z" fill="currentColor"/>
<path d="M14.7754 0.033637C11.6024 0.318218 8.49955 1.5514 5.98283 3.54347C5.4094 3.99881 4.25617 5.12448 3.77194 5.70629L3.39603 6.16795H9.00289H14.6161L14.6225 4.94741C14.6289 4.28339 14.6352 3.68893 14.6416 3.63834C14.648 3.55612 14.8519 3.54347 16.0051 3.5245L17.3558 3.51185V6.16795V8.82404H9.52535H1.70123L1.45911 9.34261C0.490653 11.4422 5.30931e-05 13.6113 5.30931e-05 15.8121C-0.00631834 18.3733 0.560739 20.7765 1.71397 23.0594C3.33231 26.2594 5.7216 28.6752 8.81812 30.2246C11.029 31.3376 12.8257 31.8372 15.094 31.97C18.2478 32.166 21.2743 31.4008 24.186 29.687C25.6132 28.8459 27.2889 27.3977 28.3466 26.0886C30.3344 23.616 31.6279 20.5172 31.9528 17.4311C32.0484 16.5204 31.991 14.3955 31.8509 13.5671C31.6342 12.277 31.15 10.7023 30.6148 9.51969L30.3153 8.85566L28.8372 8.83669L27.359 8.82404L27.2124 9.05803C27.1296 9.19084 26.7346 9.93707 26.3268 10.7213C24.3899 14.4651 20.4269 21.9844 19.331 23.9701C19.0252 24.5266 18.4708 25.5511 18.0886 26.2468C17.0755 28.0997 16.0752 29.9084 16.0242 29.959C16.0051 29.9779 15.591 29.2949 15.1131 28.4412C14.6352 27.5811 13.5776 25.6966 12.7748 24.2547C11.9656 22.8128 10.8952 20.884 10.3982 19.9733L9.48712 18.3101H6.32052H3.14754V17.0137V15.7172H7.12332H11.0991L11.5769 16.552C11.8318 17.0137 12.4881 18.2026 13.0233 19.1955C13.5585 20.1883 14.1446 21.2697 14.3294 21.5986C14.5142 21.9274 14.9602 22.7496 15.317 23.4199C15.6802 24.0903 15.9987 24.6152 16.0242 24.5899C16.0688 24.5393 17.3686 22.1045 18.439 20.0492C18.7321 19.4927 19.159 18.6832 19.3947 18.2469C19.6304 17.8105 20.6626 15.85 21.6884 13.8833C22.7142 11.9165 23.7209 9.99399 23.9248 9.6019C24.135 9.20981 24.3007 8.87464 24.3007 8.85566C24.3007 8.83669 23.7018 8.82404 22.9627 8.82404C22.23 8.82404 21.6247 8.81772 21.6247 8.80507C21.6247 8.79242 21.9369 8.20429 22.3128 7.496L23.0009 6.19957L25.7916 6.16795L28.5823 6.13633L27.9452 5.40906C26.5434 3.80276 24.6511 2.37353 22.7397 1.48184C21.3252 0.824141 19.8534 0.381459 18.3307 0.160118C17.2985 0.0146649 15.6802 -0.0422514 14.7754 0.033637ZM14.5652 11.7331C14.8009 12.1695 15.215 12.9347 15.4826 13.4279C15.7502 13.9275 15.9924 14.3133 16.0178 14.2817C16.0433 14.2564 16.432 13.5165 16.878 12.6501C17.324 11.7774 17.719 11.0311 17.7572 10.9869C17.8082 10.9236 18.1459 10.9046 19.229 10.9173C20.0064 10.9173 20.6562 10.9363 20.6817 10.9552C20.7072 10.9679 20.6945 11.0438 20.6435 11.1197C20.5989 11.1956 20.3886 11.5876 20.1784 11.9861C19.7897 12.7196 19.057 14.092 18.5154 15.0848C18.3562 15.3821 17.993 16.0651 17.7063 16.6026C17.4196 17.1401 16.9162 18.0761 16.5913 18.6769C16.0306 19.714 15.9924 19.7646 15.9159 19.6255C15.8713 19.5496 15.1067 18.1583 14.2211 16.552L12.6027 13.6177L7.87515 13.624L3.14754 13.6366V12.2706V10.911L8.63972 10.9236L14.1383 10.9426L14.5652 11.7331ZM27.9579 15.7236C28.1044 15.7615 28.372 15.8943 28.5377 16.0208C29.3787 16.6532 29.4424 17.8231 28.6779 18.5883C27.8432 19.4105 26.365 19.1322 25.8681 18.0571C25.6833 17.6524 25.6897 17.0453 25.8872 16.6658C26.3141 15.8437 27.0723 15.5022 27.9579 15.7236Z" fill="currentColor"/>
</svg>
