<svg width="48" height="48" viewBox="0 0 48 48" fill="none" xmlns="http://www.w3.org/2000/svg">
<path d="M22.1631 0.0504567C17.4037 0.477329 12.7493 2.32711 8.97424 5.31521C8.1141 5.99821 6.38426 7.68673 5.65791 8.55944L5.09404 9.25193H13.5043H21.9242L21.9337 7.42112C21.9433 6.42508 21.9529 5.53339 21.9624 5.4575C21.972 5.33419 22.2778 5.31521 24.0076 5.28675L26.0338 5.26778V9.25193V13.2361H14.288H2.55184L2.18867 14.0139C0.73598 17.1633 7.96396e-05 20.417 7.96396e-05 23.7181C-0.00947751 27.56 0.841109 31.1647 2.57095 34.5892C4.99847 39.3891 8.5824 43.0128 13.2272 45.3369C16.5435 47.0064 19.2386 47.7558 22.641 47.955C27.3718 48.2491 31.9114 47.1013 36.279 44.5305C38.4198 43.2689 40.9334 41.0966 42.5198 39.133C45.5017 35.4239 47.4418 30.7758 47.9292 26.1466C48.0725 24.7806 47.9865 21.5933 47.7763 20.3506C47.4513 18.4154 46.725 16.0534 45.9222 14.2795L45.473 13.2835L43.2557 13.255L41.0385 13.2361L40.8187 13.587C40.6944 13.7863 40.1019 14.9056 39.4902 16.0819C36.5849 21.6976 30.6403 32.9765 28.9965 35.9551C28.5377 36.7899 27.7063 38.3267 27.1328 39.3701C25.6132 42.1495 24.1128 44.8625 24.0363 44.9384C24.0076 44.9669 23.3864 43.9424 22.6696 42.6618C21.9529 41.3717 20.3664 38.5448 19.1622 36.382C17.9484 34.2192 16.3428 31.326 15.5973 29.96L14.2307 27.4651H9.48077H4.72131V25.5205V23.5759H10.685H16.6486L17.3654 24.828C17.7477 25.5205 18.7321 27.3039 19.5349 28.7932C20.3377 30.2825 21.217 31.9046 21.4941 32.3979C21.7713 32.8912 22.4403 34.1243 22.9755 35.1299C23.5202 36.1354 23.9981 36.9227 24.0363 36.8848C24.1032 36.8089 26.0529 33.1568 27.6585 30.0738C28.0981 29.239 28.7384 28.0248 29.092 27.3703C29.4457 26.7157 30.9939 23.7751 32.5326 20.8249C34.0713 17.8747 35.5813 14.991 35.8872 14.4028C36.2026 13.8147 36.4511 13.312 36.4511 13.2835C36.4511 13.255 35.5527 13.2361 34.444 13.2361C33.345 13.2361 32.437 13.2266 32.437 13.2076C32.437 13.1886 32.9053 12.3064 33.4692 11.244L34.5014 9.29936L38.6874 9.25193L42.8735 9.20449L41.9177 8.1136C39.8152 5.70414 36.9767 3.56029 34.1095 2.22276C31.9879 1.23621 29.7802 0.572189 27.496 0.240178C25.9477 0.0219986 23.5202 -0.0633758 22.1631 0.0504567ZM21.8477 17.5996C22.2013 18.2542 22.8226 19.402 23.224 20.1419C23.6254 20.8913 23.9885 21.47 24.0268 21.4225C24.065 21.3846 24.648 20.2747 25.317 18.9751C25.986 17.666 26.5785 16.5467 26.6359 16.4803C26.7123 16.3854 27.2188 16.357 28.8436 16.3759C30.0095 16.3759 30.9844 16.4044 31.0226 16.4329C31.0608 16.4518 31.0417 16.5657 30.9652 16.6795C30.8983 16.7933 30.583 17.3815 30.2676 17.9791C29.6846 19.0795 28.5855 21.1379 27.7732 22.6273C27.5342 23.0731 26.9895 24.0976 26.5594 24.9039C26.1293 25.7102 25.3743 27.1142 24.8869 28.0153C24.0459 29.571 23.9885 29.6469 23.8738 29.4382C23.8069 29.3244 22.6601 27.2375 21.3316 24.828L18.9041 20.4265L11.8127 20.436L4.72131 20.4549V18.406V16.3665L12.9596 16.3854L21.2074 16.4139L21.8477 17.5996ZM41.9369 23.5853C42.1567 23.6423 42.5581 23.8415 42.8066 24.0312C44.0681 24.9798 44.1637 26.7347 43.0168 27.8825C41.7648 29.1157 39.5476 28.6983 38.8021 27.0857C38.525 26.4786 38.5345 25.5679 38.8308 24.9988C39.4711 23.7656 40.6084 23.2533 41.9369 23.5853Z" fill="black"/>
</svg>
