<svg width="500" height="500" viewBox="0 0 500 500" fill="none" xmlns="http://www.w3.org/2000/svg">
<path fill-rule="evenodd" clip-rule="evenodd" d="M347.495 146.269C327.081 126.753 303.048 114.345 275.286 108.987C262.921 106.601 238.8 106.31 227.321 108.408C173.742 118.203 132.171 154.482 114.925 206.495C109.323 223.39 107.41 236.937 108.154 254.448C109.558 287.514 122.165 318.745 144.2 343.745C184.019 388.923 246.9 404.334 301.586 382.318C351.738 362.127 387.505 314.044 391.815 261.02C395.311 218.005 379.377 176.748 347.495 146.269ZM229.821 127.974C233.946 127.311 237.996 126.603 238.821 126.401C242.184 125.578 267.801 127.055 274.321 128.447C299.18 133.757 321.847 146.483 338.841 164.673L346.104 172.448L343.213 173.08C341.622 173.427 332.132 173.765 322.123 173.83L303.926 173.948L299.434 182.198C295.711 189.034 293.872 191.922 294.648 193.127C295.328 194.184 298.019 193.948 303.214 193.948C309.86 193.948 312.821 194.307 312.821 195.113C312.821 195.754 307.814 205.992 301.694 217.863C286.453 247.427 256.11 305.378 252.78 311.282L250.054 316.116L246.062 308.782C243.866 304.748 235.878 289.973 228.31 275.948C220.743 261.923 213.867 249.661 213.031 248.698C211.647 247.104 208.844 246.948 181.666 246.948H151.821V257.448V267.948H176.162H200.503L203.334 273.198C211.874 289.035 243.581 346.299 246.566 351.277C248.489 354.484 250.412 356.734 250.839 356.277C252.944 354.029 292.357 280.088 326.361 214.594L337.189 193.739L347.969 194.108C353.899 194.311 359.237 194.964 359.833 195.56C361.691 197.418 366.838 211.025 369.437 220.948C372.812 233.838 373.669 253.586 371.44 267.104C363.704 314.018 331.723 351.939 287.2 366.989C243.522 381.753 193.672 368.555 161.092 333.602C148.799 320.414 137.511 300.386 132.418 282.729C124.941 256.804 126.686 226.318 137.028 202.189L140.346 194.448L200.584 194.19L260.821 193.932V173.44V152.948H251.903C246.998 152.948 242.273 153.221 241.403 153.555C240.108 154.052 239.821 155.956 239.821 164.055V173.948H196.786C155.963 173.948 153.799 173.857 154.696 172.182C156.78 168.288 175.206 151.652 183.223 146.426C197.641 137.028 214.136 130.496 229.821 127.974ZM236.394 211.217L227.454 210.583C222.537 210.234 203.508 209.948 185.167 209.948H151.821V220.436V230.923L187.996 231.186L224.171 231.448L236.44 253.842C243.189 266.159 249.114 276.641 249.608 277.135C250.656 278.183 286.126 212.25 285.264 210.857C284.598 209.778 265.813 209.65 264.219 210.713C263.613 211.117 260.28 217.027 256.814 223.846C253.291 230.776 251.784 234.407 250.179 234.451C248.455 234.499 246.617 230.412 242.048 221.833L236.394 211.217ZM349.925 265.234C353.092 258.692 350.636 251.972 343.782 248.428C329.405 240.993 317.304 261.618 330.733 270.668C337.613 275.304 346.231 272.863 349.925 265.234Z" fill="currentColor"/>
</svg>
