<svg width="48" height="48" viewBox="0 0 48 48" fill="none" xmlns="http://www.w3.org/2000/svg">
<path fill-rule="evenodd" clip-rule="evenodd" d="M33.3595 14.0418C31.3997 12.1682 29.0926 10.9771 26.4274 10.4627C25.2404 10.2336 22.9248 10.2057 21.8228 10.4071C16.6792 11.3474 12.6884 14.8302 11.0328 19.8235C10.495 21.4454 10.3113 22.7459 10.3827 24.427C10.5175 27.6013 11.7278 30.5995 13.8432 32.9995C17.6658 37.3366 23.7024 38.816 28.9522 36.7025C33.7668 34.7641 37.2004 30.1482 37.6142 25.0579C37.9498 20.9284 36.4201 16.9678 33.3595 14.0418ZM22.0628 12.2855C22.4588 12.2218 22.8476 12.1538 22.9268 12.1344C23.2496 12.0554 25.7089 12.1972 26.3348 12.3309C28.7212 12.8406 30.8973 14.0623 32.5287 15.8086L33.2259 16.555L32.9484 16.6156C32.7957 16.6489 31.8846 16.6814 30.9238 16.6876L29.1769 16.699L28.7456 17.491C28.3882 18.1473 28.2118 18.4244 28.2862 18.5402C28.3515 18.6417 28.6099 18.619 29.1085 18.619C29.7465 18.619 30.0308 18.6534 30.0308 18.7308C30.0308 18.7923 29.5501 19.7752 28.9626 20.9148C27.4994 23.7529 24.5865 29.3162 24.2668 29.883L24.0051 30.3471L23.6219 29.643C23.4111 29.2558 22.6442 27.8374 21.9177 26.491C21.1913 25.1446 20.5312 23.9674 20.4509 23.875C20.3181 23.7219 20.049 23.707 17.4399 23.707H14.5748V24.715V25.723H16.9115H19.2482L19.52 26.227C20.3399 27.7473 23.3837 33.2447 23.6703 33.7225C23.8549 34.0304 24.0395 34.2464 24.0805 34.2025C24.2826 33.9867 28.0662 26.8884 31.3306 20.601L32.3701 18.5989L33.405 18.6343C33.9743 18.6538 34.4867 18.7165 34.5439 18.7737C34.7223 18.9521 35.2164 20.2584 35.4659 21.211C35.7899 22.4484 35.8722 24.3442 35.6582 25.6419C34.9155 30.1457 31.8454 33.7861 27.5712 35.2309C23.3781 36.6482 18.5925 35.3812 15.4648 32.0257C14.2847 30.7597 13.201 28.837 12.7121 27.1419C11.9943 24.6531 12.1618 21.7265 13.1546 19.4101L13.4732 18.667L19.256 18.6422L25.0388 18.6174V16.6502V14.683H24.1826C23.7118 14.683 23.2582 14.7092 23.1746 14.7412C23.0503 14.7889 23.0228 14.9717 23.0228 15.7492V16.699H18.8914C14.9724 16.699 14.7647 16.6902 14.8508 16.5294C15.0508 16.1556 16.8197 14.5585 17.5894 14.0568C18.9735 13.1546 20.557 12.5276 22.0628 12.2855ZM22.6938 20.2768L21.8355 20.2159C21.3635 20.1824 19.5367 20.155 17.776 20.155H14.5748V21.1618V22.1686L18.0476 22.1938L21.5204 22.219L22.6982 24.3688C23.3461 25.5512 23.9149 26.5575 23.9623 26.6049C24.0629 26.7055 27.468 20.376 27.3853 20.2422C27.3214 20.1386 25.518 20.1264 25.365 20.2284C25.3068 20.2672 24.9868 20.8345 24.6541 21.4892C24.3159 22.1544 24.1713 22.5031 24.0172 22.5073C23.8517 22.5119 23.6753 22.1195 23.2366 21.2959L22.6938 20.2768ZM33.5928 25.4624C33.8968 24.8344 33.661 24.1893 33.003 23.849C31.6228 23.1353 30.4611 25.1153 31.7503 25.9841C32.4108 26.4291 33.2381 26.1948 33.5928 25.4624Z" fill="black"/>
</svg>
